/* XPM */
static char *_10b9371156c4d05e661bf2103b944244L2Qjyh0YUurhVF8[] = {
/* columns rows colors chars-per-pixel */
"32 32 15 1 ",
"  c None",
". c black",
"X c #030429",
"o c #020430",
"O c #030540",
"+ c #A62929",
"@ c #CF3030",
"# c #E62C2C",
"$ c #D94B41",
"% c #CF9F32",
"& c #E8C735",
"* c #CC865A",
"= c #ED9B68",
"- c gray67",
"; c white",
/* pixels */
"                                ",
"                                ",
"         &&&&&&&&&&&            ",
"       &&......---..&           ",
"      &........-.-...&          ",
"     &..........-.....&&        ",
"    &..........-.-......&       ",
"    &......#########.....&      ",
"    &.....###########....&      ",
"    &....##===$==$==##...&      ",
"    &....#*====$==$==#...&      ",
"    &.....*=;.==$;.$=....&      ",
"         .*=..===..==.          ",
"         .*==========.          ",
"         .+@@======@@.          ",
"         .+@@@@==@@@@.          ",
"         .+@@@@==@@@@.          ",
"         .+@@@%==%@@@.          ",
"         .+@@@@==@@@@.          ",
"         .+@@@%==%@@@.          ",
"         .+@@@@==@@@@.          ",
"         .+@@@@==@@@@.          ",
"         .............          ",
"         .oOOOOOOOOOO.          ",
"         .oOOOOOOOOOO.          ",
"         .oOOOOOOOOOO.          ",
"         .oOOO...OOOO.          ",
"         .oOO.  .OOOX           ",
"         .oO.   .OO.            ",
"         .o.    .O.             ",
"         ..     ..              ",
"                                "
};
