/* XPM */
static char *_712b350501f4857978b6672287e5370B5OjHCTRK0WmkBJj[] = {
/* columns rows colors chars-per-pixel */
"32 32 13 1 ",
"  c None",
". c black",
"X c #736E6E",
"o c #D10202",
"O c #D90404",
"+ c #F00000",
"@ c #F01D1D",
"# c #C22525",
"$ c #C43737",
"% c #858282",
"& c #B5B3B5",
"* c #BAB8BA",
"= c #C4C0C4",
/* pixels */
"                                ",
"                                ",
"                                ",
"                                ",
"                                ",
"                                ",
"                                ",
"       ..................       ",
"      ..%X..&..oooooo..&..      ",
"     ..%..%..&..@@@@oo..&..     ",
"     .%....X.&=.@O@@@oo.**.     ",
"    ....$#....&..O@@@@o..*..    ",
"   ..%.$$$#.%..&.@@...oo..=..   ",
"   ..................=.......   ",
"   .%%X%%%%%%%.&&=&&.=.&==&&.   ",
"   .%........%.&...........&.   ",
"   .X.######.%.&.ooooooooo.=.   ",
"   .X.$$$$$#.%.=.@@@@@@@@o.=.   ",
"   .%.$$$$$#.%.=.@@+++@@@o.=.   ",
"   .%.$$$$$#.X.*.@O@OO@@@o.*.   ",
"   .%.$$$$$#.%.&.@O@@OO@@o.*.   ",
"   .%.$$$$$#.%.&.@@@@@@@@o.&.   ",
"   .%........X.&...........&.   ",
"   .%%%%%X%%XX.&&&&&===*&&&&.   ",
"   ..........................   ",
"                                ",
"                                ",
"                                ",
"                                ",
"                                ",
"                                ",
"                                "
};
