/* XPM */
static char *_341f83af8394d6d84bf802fb2c5620f1GcJxRMHqL59nvSt[] = {
/* columns rows colors chars-per-pixel */
"32 32 4 1 ",
"  c #2F5423",
". c #3A662A",
"X c #50853E",
"o c #508F39",
/* pixels */
".XooXX. .XXoXX. .XXoXX. .XXXoX. ",
".XooXX. .XXoXX. .XXoXX. .XXXoX. ",
".oooXX. .XXoXX. XXXooo. .XXXoo. ",
".XooXX. .XXoXXX .XXooo. .XXXooX ",
".XoooX. .XooXX. .XXooX. .XXXoXX ",
".XooXX. .ooooX. .XXoXXX .XoXoX. ",
"        .XXooX. .oXoXXX .XoXoX. ",
"...X... .XXoXX. XXooXXX .XoooX. ",
".XoooX. .XXoXX. .XooXX. .XXooX. ",
"XooooXX .XXoXX. .XooXX. .XXXoX. ",
".ooooX. XXXoXX. .XooXX. XXXXoX. ",
"XXooXX. .XXoXX.         .XXXoXX ",
".XooXX. .XXooX. ....X.. .XXooXX ",
".XooXX. XXXooX. .XXoXX. XXoooXX ",
"XXoooX. .XXooX. XXXoXX. .XXXoo. ",
"XoooXX. .XXooX. .XXoXX. .XXXoo. ",
".oooXX. .XXooo. .XXoXX. .XXXoX. ",
".XooXX. .XXoXX. .XXoXX. .XXXoX. ",
".XoooX. .XXoXX. .XooXX. .XXXoX. ",
".XooXX. .XXoXX. .XXoXX. .XXXoX. ",
".oooXo.         .oXoXX. .XXXoX. ",
".XoooX. XX..... .XXooXX .XoXoX. ",
".XooXX. .XooXX. .XXooo. .XXXoX. ",
".XooXX. .XooXX. .XXoXXX .XXXoXX ",
".XooXX. .XXoXX. .XXooX. .XoXoXX ",
"XXooXXX XXXooX. .XXoXX. .XXooX. ",
".XooXX. XXXoXX. .XXoXX.         ",
"XXooXX. .XooXX. XXXoXXX ....XX. ",
".XoooX. .XXoXXX .oooXXX .XXXoX. ",
".XoooX. .oooXXX .oXoXX. .XXXoX. ",
".XooXo. .XXoXXX .XXoXX. .XXXoX. ",
".XooXX. .XXoXX. .XXoXX. .XXXoX. "
};
