/* XPM */
static char *_97b5e498ac84e3295ac69d10706551bOcLLZY3IXMTnGauk[] = {
/* columns rows colors chars-per-pixel */
"32 32 8 1 ",
"  c #38572D",
". c #26662F",
"X c #40732E",
"o c #5C5B5C",
"O c #7A787A",
"+ c #8A878A",
"@ c #8F8D8F",
"# c #ABA7AB",
/* pixels */
"++##@ XX..X..X......XXXXX  XX.. ",
"++@@+  XX..XX....XX.XXX   +  X. ",
"++#+++  XX....X.XXX..X  +@@+ X #",
"++#++++ XX....XX.XX.X. @@++@@  +",
"+##++@@  XX...XX..X... #+++#@ ++",
"+#+@@++@ XXXX.X..XXXX  #+++#@+++",
"+#+@++++     XX.XXX   @@+++#@@@+",
"++@@+++++++++   X   +@@@++ #++@+",
"++@+@+@@+++++++   @@@+@@@  +++++",
"++++++@@++++##+@ @@@@++++ XX +++",
"++++#+@ @ @@@@@#++++++++++ . +++",
"+++##++X +#++++@@@@@@@#+++ X +++",
"+###+++XX++#+++@@@@@@@@@+++ @##+",
"++++++#  ++#++######++++++++++##",
"OOOOOOOOOOOOOOOOOOOOOOOOOOOOOOOO",
"oooooooooooooooooooooooooooooooo",
"OOOOOOOOOOOOOOOoOOOOOOOOOO OOOOO",
"+++@@@@@@++##@OoO++++++@@  ++@##",
"++@   ++@@++#@OoO+@@@###@ X @@++",
"++  X  ++@@@@@OoO+@@@@+@  X @+++",
"+@ X.XX +++@++OoO+@#+@@@ .. +@++",
"+@ X..X @@@@++OoO+@#@@ X..  ++++",
"@@  X.X ##@+++OoO+#+@+ X.X #++++",
"@++ X.X  ###++OoO+#+@+  XX +++++",
"@#+ X..X  @@++OoO+@@+++@  @@+++@",
"@@@ XX..X  @++OoO@@++++@+++#++@@",
"@@#  XX..X @@+OoO+@+##+@+++@@+@+",
"+#+@   X.X +@+OoO+@@+#@@#@@+@+@@",
"+++++@ X.X+@#+OoO++@++ @@+++@@##",
"++++#++XX @#++OoO++@@@ X++@++++#",
"+++++@@@ @@@@+OoO+#@#@@..  @@@@+",
"++++++++++++++OoO+#++##+. ++++++"
};
