/* XPM */
static char *c2f0553409814e80ec693fe548501560rrd3F63UMCeeZQ2U[] = {
/* columns rows colors chars-per-pixel */
"32 32 4 1 ",
"  c black",
". c gray59",
"X c gray72",
"o c gray79",
/* pixels */
"   ..o  .. .. ..ooo ..XXX. .oo.X",
"... .o .XX ooo .XXX.   ... .X..X",
"..X     X X.oo. ..X. .. . . .X  ",
" oX oXX . XX.. ..X. .oo. ...  .o",
"  o o X  ..X.. .   .oo. o.X. .oX",
".  .. ..    .   ... ..  XoXX. .X",
"..  .   .o.  .. ..X   o. o.X.. .",
".X.  . .XXoo. X. .X. .XXX o.. . ",
".X  .. .X..o. X.. .X .o.X    ...",
"  . o   XXoo .XX..   X.   ..oXX.",
".X.  o. ..o..  ..  o . ... .o..X",
"XX.X ..   .. .. . ... .X.X o..oX",
".oXX o.XX   ..X. .X.o .X.. X   X",
".   . oX XX. X.. X..X  .X.. XX. ",
"  . .   ..X. .. . X   . .  ..XX.",
".ooo  . oo. X  oo. .o.X. o. oo..",
"  o.X  .   .X.  oo. .XX. .oX o. ",
".   X ..X.. XX. .X.. .. .X.. . .",
"XX.  . .X. ..X. XX.X   ..XX.. .X",
".o. .X. .X. .  .X   .o.  .XXo ..",
"o   X.o .X.. .. . .. .X..  .   o",
"  . .. . .. . .. .XX. ..X.  ... ",
"..o   ...  .  .X. ..X .... ..X..",
"X.oo ..X. .X. .X. .X . X.X   XXX",
"X..o. X. ..oo  . .. ..o . .o. .X",
"XX... . . .X.   oo. .oo  .XXX. .",
"..X.o . o.   oo. .  .  .. o..   ",
".   X.  ..o. .X.. .. ..XX .. .oX",
" .ooXX ..Xoo .XX..  . ..XX  ..oX",
".oo.XX. .X.o. ..X ..oo o.X . .XX",
"...XX.. .XX..X o. .XX. .X .XX ..",
"o.....  .o.X.. .. .X... . .... o"
};
