/* XPM */
static char *ad9ce71d14584732afee7864b779f6ebCqa4Cavrf3OhaTWy[] = {
/* columns rows colors chars-per-pixel */
"32 32 5 1 ",
"  c #5C5B5C",
". c #7A787A",
"X c #8A878A",
"o c #8F8D8F",
"O c #ABA7AB",
/* pixels */
"....oo.....o.........oo........ ",
".XXXXXXXOXXXXXXXXoooXXXXXXXXXX. ",
".XXXXXXXOXXXXXXooXXXOXXXOXoXXX..",
".XOXXXXXXXXOXXXoXXXXXXXXXXXXXXo ",
".OOXXooXXXXXXXXXXXXXXXXXXoXOXX. ",
".OXooXXXXXXXXXXXXXXoXXXXXXXOXX. ",
".OXoXXXXXXXXXOOOXXooXXooXXXOXXo ",
".XooXXXXXXXXXXXXXXXXXXooXoXOXXo ",
"oXoXXXXXXXXXXXXXXXoooXooXoXXXXo ",
".XXXXXooXXXXOOXXXXoooXXXXXXXXX. ",
".XXXOXoXXXoooooOXXXXXXXXXXXXXX..",
".XXOOXXXXXOXXXXoooooooOXXXXXXX..",
".OOOXXXXXXXOXXXoooooooooXXXXoO. ",
".XXXXXOXXXXOXXOOOOOOXXXXXXXXXX. ",
".....O....ooooo.........o.o.... ",
"       .           ..           ",
"...........o... ..........X.....",
"XXXoXXoooXXOOo. .XXXXXXoXXXXXoOO",
"XXXXXXXXooXXOo. .XoooOOXXXXXXoXX",
"XXXXXXXXXooooo...XooooXXXooXoXXX",
"XoXXXXXXXXXoXX. .XoOXooXXoXXXoXX",
"XoXXXXXXooooXX. .XoOoXXXooXXXXXX",
"ooXXXoXXXOoXXX. .XOXoXXXoXXXoXXX",
"oXXXXoXXXOOOXXo .XOXoXXXXXXXXXXX",
"oOXXXooXXXXoXX. .XooXXXXXXooXXXo",
"oooXXXXXXXXoXX. .ooXXXXoXXXOXXoo",
"ooOXXXXXXXXooX. .XoXOOXoXXXooXoX",
"XOXoXXXXXXXXoX...XooXOooOooXoXoo",
"XXXXXoXXXXXoOX. oXXoXXXooXXXooOO",
"XXXXOXXXXXoOXX. .XXoooXXXXoXXXXO",
".......oo...... ...oooo...o.....",
"  .       ...        .      .   "
};
