/* XPM */
static char *bc1817a6255b45dcfd1a5b4476f7776d5gdtxwEnCcvmo8WP[] = {
/* columns rows colors chars-per-pixel */
"32 32 21 1 ",
"  c None",
". c black",
"X c #030429",
"o c #020430",
"O c #422907",
"+ c #030540",
"@ c #A62929",
"# c #CF3030",
"$ c #E62C2C",
"% c #D94B41",
"& c #CF9F32",
"* c #E8C735",
"= c #CC865A",
"- c #ED9B68",
"; c #E8CC4F",
": c gray52",
"> c gray67",
", c #ADACAD",
"< c gray80",
"1 c gray85",
"2 c white",
/* pixels */
"                            ... ",
"                           .;;;.",
"         ***********      .;;;;.",
"       **......>>>..*    .;;;;..",
"      *........>.>...*  .;;;;.  ",
"     *..........>.....**;;;;.   ",
"    *..........>.>......*;;.    ",
"    *......$$$$$$$$$.....*      ",
"    *.....$$$$$$$$$$$....*      ",
"    *....$$---%.-%--$$...*      ",
"    *....$=....%--%--$...*      ",
"    *.....=....-%2.%-....*      ",
"         .=....--..--.    ...   ",
"         ......------.  ..:::.  ",
"         .@##------##. .::::::. ",
"         .@####--####..##::..::.",
"        ..@####--####.####:..::.",
"       .,.@###&--&########..:::.",
"      .,,.@####--#######.. .1:. ",
"     .,,,.@###&--&#####.    ..  ",
"    .,,,,.@####--####..         ",
"   .,,,,<.@####--####.          ",
"  .,,,,<<.............          ",
" .,,,,<<<.o++++++++++.          ",
" .,,,<<<..o++++++++++.          ",
".,,<<<....o++++++++++.          ",
".,....   OOOO....++++.          ",
"..       OOOO   .+++X           ",
"          OO    .++.            ",
"          OO    .+.             ",
"          OO    ..              ",
"                                "
};
