/* XPM */
static char *_15328514b42444cb661081ba5033840TVyWHn7E25n929oz[] = {
/* columns rows colors chars-per-pixel */
"32 32 7 1 ",
"  c None",
". c #E6C302",
"X c #E8C917",
"o c #F5C63B",
"O c #F5CC5D",
"+ c #F2DE68",
"@ c #F7D377",
/* pixels */
"                                ",
"                                ",
"                                ",
"                                ",
"                                ",
"                                ",
"                                ",
"                                ",
"             oooooo             ",
"           oooOOOOooo           ",
"          ooOOO@@OOOoo          ",
"         ooOO@@++@@OOoo         ",
"         oOO@++++++@OOo         ",
"        ooO@++....++@Ooo        ",
"        oOO@++.XXX++@OOo        ",
"        oO@+++.X+++++@Oo        ",
"        oO@+++.X+++++@Oo        ",
"        oOO@++.XXX++@OOo        ",
"        ooO@++....++@Ooo        ",
"         oOO@++++++@OOo         ",
"         ooOO@@++@@OOoo         ",
"          ooOOO@@OOOoo          ",
"           oooOOOOooo           ",
"             oooooo             ",
"                                ",
"                                ",
"                                ",
"                                ",
"                                ",
"                                ",
"                                ",
"                                "
};
